<svg width="264" height="123" viewBox="0 0 264 123" fill="none" xmlns="http://www.w3.org/2000/svg">
<rect x="34.9766" y="91" width="65" height="13" rx="1.5" stroke="#313131"/>
<rect x="164.977" y="91" width="65" height="13" rx="1.5" stroke="#313131"/>
<rect x="164.477" y="18.5" width="66" height="66" fill="#313131"/>
<rect x="34.4766" y="18.5" width="66" height="66" fill="#FA5610" fill-opacity="0.17"/>
<path d="M128.175 46.2273L129.021 51.7528H129.088L131.762 46.2273H133.467L129.752 53.5H127.771L126.467 46.2273H128.175ZM137.332 48.3402C137.344 48.0443 137.258 47.8158 137.073 47.6548C136.891 47.4938 136.615 47.4134 136.246 47.4134C135.995 47.4134 135.777 47.4489 135.592 47.5199C135.407 47.5885 135.259 47.6844 135.148 47.8075C135.039 47.9283 134.972 48.0679 134.946 48.2266C134.92 48.3568 134.928 48.4704 134.971 48.5675C135.016 48.6645 135.085 48.7486 135.18 48.8196C135.277 48.8883 135.392 48.9486 135.525 49.0007C135.657 49.0504 135.798 49.093 135.947 49.1286L136.572 49.2848C136.878 49.3558 137.152 49.4505 137.396 49.5689C137.642 49.6873 137.848 49.8329 138.014 50.0057C138.182 50.1785 138.3 50.3821 138.369 50.6165C138.438 50.8509 138.447 51.1196 138.398 51.4226C138.322 51.8677 138.145 52.2536 137.868 52.5803C137.591 52.9046 137.228 53.1567 136.778 53.3366C136.328 53.5142 135.808 53.603 135.216 53.603C134.629 53.603 134.133 53.513 133.728 53.3331C133.323 53.1532 133.028 52.8868 132.844 52.5341C132.661 52.179 132.607 51.7398 132.68 51.2166H134.168C134.142 51.4605 134.178 51.6641 134.275 51.8274C134.374 51.9884 134.522 52.1103 134.719 52.1932C134.915 52.2737 135.146 52.3139 135.411 52.3139C135.674 52.3139 135.907 52.276 136.111 52.2003C136.317 52.1245 136.483 52.0192 136.611 51.8842C136.739 51.7493 136.817 51.5942 136.846 51.419C136.874 51.2557 136.849 51.1184 136.771 51.0071C136.693 50.8958 136.567 50.8011 136.395 50.723C136.224 50.6425 136.012 50.5715 135.759 50.5099L134.999 50.3111C134.412 50.1619 133.968 49.9287 133.667 49.6115C133.367 49.2943 133.259 48.867 133.344 48.3295C133.42 47.8892 133.603 47.5045 133.895 47.1754C134.188 46.844 134.558 46.5871 135.003 46.4048C135.45 46.2202 135.939 46.1278 136.469 46.1278C137.009 46.1278 137.465 46.2214 137.836 46.4084C138.208 46.593 138.479 46.8511 138.65 47.1825C138.82 47.514 138.872 47.8999 138.806 48.3402H137.332Z" fill="#FF4C00"/>
</svg>
