<svg width="264" height="124" viewBox="0 0 264 124" fill="none" xmlns="http://www.w3.org/2000/svg">
<rect x="11.4766" y="8.64062" width="99" height="35" rx="1.5" stroke="#313131"/>
<path d="M10.9766 26.1406H109.977" stroke="#313131"/>
<rect x="155.477" y="44.6406" width="99" height="35" rx="1.5" stroke="#313131"/>
<path d="M154.977 62.1406H253.977" stroke="#313131"/>
<rect x="10.4766" y="80.6406" width="99" height="35" rx="1.5" stroke="#313131"/>
<path d="M9.97656 98.1406H108.977" stroke="#313131"/>
<path d="M109.977 26.1406H128.977V54.1406H154.977" stroke="#313131"/>
<path d="M109.977 98.1406H128.977V71.1406H154.977" stroke="#313131"/>
<rect x="94.9766" y="28.1406" width="14" height="14" fill="#FA5610" fill-opacity="0.17"/>
<rect x="94.9766" y="10.1406" width="14" height="14" fill="#313131"/>
<rect x="238.977" y="64.1406" width="14" height="14" fill="#FA5610" fill-opacity="0.17"/>
<rect x="238.977" y="46.1406" width="14" height="14" fill="#313131"/>
<rect x="92.9766" y="100.141" width="14" height="14" fill="#313131"/>
<rect x="92.9766" y="82.1406" width="14" height="14" fill="#FA5610" fill-opacity="0.17"/>
</svg>
