<svg width="83" height="84" viewBox="0 0 83 84" fill="none" xmlns="http://www.w3.org/2000/svg">
<g filter="url(#filter0_d_2518_972)">
<path d="M63.2515 38.0774L75.4137 26.0041C78.2203 23.2179 78.2203 18.8839 75.4137 16.0978L58.106 33.279L54.9875 30.1833L67.3056 17.9552C70.1123 15.169 70.1123 10.835 67.3056 8.0489L49.842 25.3849L46.7235 22.2892L59.1975 9.90633C62.0041 7.12018 62.0041 2.78615 59.1975 0L41.578 17.1813L30.3513 5.88188C27.5447 3.09573 23.1788 3.09573 20.3721 5.88188L36.5883 21.9797L33.3139 25.2301L22.0873 14.0855C19.2807 11.2994 14.9147 11.2994 12.1081 14.0855L28.3243 30.1833L25.2058 33.279L13.9792 22.1344C11.1725 19.3483 6.80665 19.3483 4 22.1344L19.9043 37.9226L7.74219 49.9959C4.93554 52.7821 4.93554 57.1161 7.74219 59.9023L25.0499 42.721L28.1684 45.8167L15.8503 58.0448C13.0437 60.831 13.0437 65.165 15.8503 67.9511L33.3139 50.6151L36.4324 53.7108L23.9584 66.0937C21.1517 68.8798 21.1517 73.2138 23.9584 76L41.422 58.664L52.6486 69.9633C55.4553 72.7495 59.8212 72.7495 62.6279 69.9633L46.4116 53.8656L49.686 50.6151L60.9127 61.7597C63.7193 64.5458 68.0852 64.5458 70.8919 61.7597L54.6757 45.6619L57.7942 42.5662L69.0208 53.7108C71.8274 56.497 76.1933 56.497 79 53.7108L63.2515 38.0774ZM41.578 26.9328L44.6965 30.0285L41.422 33.279L38.3035 30.1833L41.578 26.9328ZM33.3139 40.8636L30.5073 38.0774L33.3139 35.2912L36.1206 38.2322L33.3139 40.8636ZM41.578 48.9124L38.4595 45.8167L41.7339 42.5662L44.8524 45.6619L41.578 48.9124ZM47.0353 37.9226L49.842 35.1365L52.6486 37.9226L49.842 40.7088L47.0353 37.9226Z" fill="white"/>
</g>
<defs>
<filter id="filter0_d_2518_972" x="0" y="0" width="83" height="84" filterUnits="userSpaceOnUse" color-interpolation-filters="sRGB">
<feFlood flood-opacity="0" result="BackgroundImageFix"/>
<feColorMatrix in="SourceAlpha" type="matrix" values="0 0 0 0 0 0 0 0 0 0 0 0 0 0 0 0 0 0 127 0" result="hardAlpha"/>
<feOffset dy="4"/>
<feGaussianBlur stdDeviation="2"/>
<feComposite in2="hardAlpha" operator="out"/>
<feColorMatrix type="matrix" values="0 0 0 0 0 0 0 0 0 0 0 0 0 0 0 0 0 0 0.25 0"/>
<feBlend mode="normal" in2="BackgroundImageFix" result="effect1_dropShadow_2518_972"/>
<feBlend mode="normal" in="SourceGraphic" in2="effect1_dropShadow_2518_972" result="shape"/>
</filter>
</defs>
</svg>
