<svg width="35" height="35" viewBox="0 0 35 35" fill="none" xmlns="http://www.w3.org/2000/svg">
<circle cx="17.5195" cy="17.5117" r="16.0664" fill="black"/>
<path fill-rule="evenodd" clip-rule="evenodd" d="M34.5195 17.5156C34.5195 26.9045 26.9084 34.5156 17.5195 34.5156C8.13069 34.5156 0.519531 26.9045 0.519531 17.5156C0.519531 8.12678 8.13069 0.515625 17.5195 0.515625C26.9084 0.515625 34.5195 8.12678 34.5195 17.5156ZM9.25687 25.7783C8.86634 25.3878 8.86634 24.7546 9.25687 24.3641L16.1053 17.5156L9.25687 10.6672C8.86634 10.2766 8.86634 9.64349 9.25687 9.25296C9.64739 8.86244 10.2806 8.86244 10.6711 9.25296L17.5195 16.1014L24.368 9.25296C24.7585 8.86244 25.3917 8.86244 25.7822 9.25296C26.1727 9.64349 26.1727 10.2766 25.7822 10.6672L18.9337 17.5156L25.7822 24.3641C26.1727 24.7546 26.1727 25.3878 25.7822 25.7783C25.3917 26.1688 24.7585 26.1688 24.368 25.7783L17.5195 18.9298L10.6711 25.7783C10.2806 26.1688 9.64739 26.1688 9.25687 25.7783Z" fill="#BF0E0E"/>
</svg>
